<?xml version="1.0" standalone="no"?><!DOCTYPE svg PUBLIC "-//W3C//DTD SVG 1.1//EN" "http://www.w3.org/Graphics/SVG/1.1/DTD/svg11.dtd"><svg t="1631670584804" class="icon" viewBox="0 0 1024 1024" version="1.1" xmlns="http://www.w3.org/2000/svg" p-id="2177" xmlns:xlink="http://www.w3.org/1999/xlink" width="200" height="200"><defs><style type="text/css"></style></defs><path d="M845.101341 884.203003a42.548766 42.548766 0 0 1-29.971726-12.36387L148.333325 212.333263a42.634034 42.634034 0 1 1 59.943452-60.625596l666.796289 659.548504a42.634034 42.634034 0 0 1-29.971725 72.989466z" p-id="2178" fill="#00CEBF"></path><path d="M511.234221 1023.488392A511.949479 511.949479 0 0 1 7.299941 425.418165a511.693674 511.693674 0 0 1 898.640166-239.859075 42.634034 42.634034 0 1 1-65.656412 54.358393 426.510875 426.510875 0 1 0 95.159163 320.735837 435.464022 435.464022 0 0 0-4.348671-126.452545 416.619779 416.619779 0 0 0-11.639091-47.707483 42.634034 42.634034 0 1 1 81.516272-24.983544 502.484723 502.484723 0 0 1 13.983964 57.385409 518.813558 518.813558 0 0 1 5.243986 151.180284 509.945679 509.945679 0 0 1-422.076936 446.207799 540.855354 540.855354 0 0 1-86.888161 7.119884z" p-id="2179" fill="#00CEBF"></path></svg>